<svg width="164" height="164" fill="none" xmlns="http://www.w3.org/2000/svg"><path d="M146.004 127.546a28.134 28.134 0 00-18.891-22.107l-22.051-7.35v-3.276h-5.125v6.972l6.496 2.165-7.708 13.702L85.741 102.5H78.26l-12.984 15.152-7.709-13.702 6.496-2.165v-6.972h-5.125v3.277l-22.047 7.349A28.133 28.133 0 0018 127.546l-5.65 33.892h139.3l-5.645-33.892zm-65.388-19.921h2.768l12.669 14.778-8.649 15.375a6.21 6.21 0 01-5.404 3.16 6.21 6.21 0 01-5.404-3.16l-8.649-15.372 12.67-14.781zm-8.49 32.664A11.34 11.34 0 0082 146.062a11.33 11.33 0 009.87-5.773l19.514-34.691 4.953 1.65-20 35.552A16.468 16.468 0 0182 151.188a16.472 16.472 0 01-14.34-8.388l-19.995-35.549 4.95-1.65 19.512 34.688zm55.756 16.023l-2.332-23.318-5.1.51 2.281 22.806H41.269l2.28-22.806-5.099-.51-2.332 23.318H18.401l4.651-27.923A23.023 23.023 0 0138.51 110.3l4.203-1.401 20.48 36.413a21.606 21.606 0 0018.808 11 21.596 21.596 0 0018.804-10.998l20.484-36.415 4.203 1.401a23.026 23.026 0 0115.457 18.089l4.651 27.923h-17.717z" fill="#A89365"/><path d="M49.82 71.606a28.015 28.015 0 007.124 12.024l9.991 9.99a12.733 12.733 0 009.061 3.755h12.008a12.73 12.73 0 009.06-3.754l9.992-9.991a28.061 28.061 0 007.124-12.023c6.386-.723 11.382-6.094 11.382-12.67 0-4.205-2.065-7.912-5.204-10.25h.08V41c0-21.194-17.244-38.438-38.438-38.438-21.194 0-38.438 17.244-38.438 38.438v7.688h.08c-3.14 2.337-5.205 6.044-5.205 10.25 0 6.575 4.997 11.946 11.383 12.668zM107.625 61.5H92.25a2.565 2.565 0 01-2.563-2.563V51.25h20.501v7.688a2.566 2.566 0 01-2.563 2.562zm-20.5-15.375H70.007c4.539-2.634 8.564-6.168 11.69-10.545l.303-.422.302.422c3.127 4.377 7.152 7.91 11.69 10.545h-6.867zM53.812 51.25h20.5v7.688A2.565 2.565 0 0171.75 61.5H56.375a2.565 2.565 0 01-2.563-2.563V51.25zm49.621 28.756l-9.991 9.992a7.637 7.637 0 01-5.438 2.252H75.996c-2.055 0-3.987-.8-5.438-2.252l-9.99-9.992a22.893 22.893 0 01-6.612-13.809c.764.256 1.568.428 2.419.428H71.75c4.238 0 7.688-3.45 7.688-7.688V51.25h5.124v7.688c0 4.238 3.45 7.687 7.688 7.687h15.375c.851 0 1.655-.172 2.419-.428a22.896 22.896 0 01-6.611 13.81zm11.759-13.817c.072-.822.12-1.652.12-2.49V51.72c2.976 1.061 5.126 3.88 5.126 7.217 0 3.38-2.209 6.226-5.246 7.251zM48.688 41C48.688 22.632 63.632 7.687 82 7.687c18.368 0 33.312 14.945 33.312 33.313v5.125h-2.562A32.35 32.35 0 0186.472 32.6L82 26.342 77.528 32.6A32.35 32.35 0 0151.25 46.125h-2.563V41zm0 10.721v11.977c0 .839.048 1.669.12 2.494-3.037-1.028-5.245-3.875-5.245-7.254 0-3.337 2.15-6.156 5.124-7.217z" fill="#A89365"/></svg>