<svg width="164" height="164" fill="none" xmlns="http://www.w3.org/2000/svg"><path d="M146.001 127.546a28.124 28.124 0 00-18.891-22.107l-22.048-7.35v-3.276h-5.125v4.807l-3.825 15.3-10.35-12.42h-7.526l-10.35 12.42-3.824-15.3v-4.808h-5.125v3.278l-22.047 7.349a28.133 28.133 0 00-18.891 22.107l-5.65 33.892h139.3l-5.648-33.892zm-65.364-19.921h2.724l6.073 7.288-4.987 7.48 4.848 33.919h-14.59l4.845-33.919-4.986-7.48 6.073-7.288zm-57.582 20.766a23.015 23.015 0 0115.457-18.088l21.174-7.06 5.678 22.712 5.779-6.935 3.057 4.587-4.672 32.705H41.27l2.28-22.806-5.099-.51-2.332 23.319H18.401l4.654-27.924zm104.827 27.921l-2.332-23.318-5.1.51 2.281 22.806h-28.26l-4.67-32.705 3.056-4.587 5.779 6.934 5.678-22.711 21.174 7.059a23.015 23.015 0 0115.457 18.089l4.654 27.923h-17.717z" fill="#A89365"/><path d="M49.82 71.606a28.015 28.015 0 007.124 12.024l9.994 9.994a12.725 12.725 0 009.058 3.751h12.01a12.73 12.73 0 009.059-3.751l9.994-9.994a28.02 28.02 0 007.123-12.023c6.384-.723 11.38-6.094 11.38-12.67 0-4.205-2.065-7.912-5.204-10.25h.08V33.313c0-6.414-4.741-11.744-10.901-12.67-3.857-10.731-14.176-18.08-25.692-18.08H82C60.806 2.563 43.562 19.805 43.562 41v7.688h.08c-3.14 2.337-5.205 6.044-5.205 10.25 0 6.575 4.997 11.946 11.383 12.668zm53.613 8.4L93.439 90a7.739 7.739 0 01-5.435 2.25h-12.01A7.743 7.743 0 0170.558 90l-9.993-9.994A22.91 22.91 0 0153.81 63.7V51.25h10.068c11.278 0 21.94-4.005 30.366-11.342l.784 1.307c3.27 5.45 8.927 9.074 15.16 9.863v12.618a22.914 22.914 0 01-6.755 16.31zm11.759-13.817c.072-.822.12-1.652.12-2.49V51.722c2.976 1.06 5.126 3.88 5.126 7.215 0 3.38-2.209 6.227-5.246 7.252zM48.688 41C48.688 22.632 63.632 7.687 82 7.687h1.845c9.845 0 18.611 6.612 21.317 16.08l.531 1.858h1.932c4.238 0 7.687 3.45 7.687 7.688v13.07a12.795 12.795 0 00-2.562-.258c-5.427 0-10.534-2.89-13.328-7.547l-4.102-6.836-2.322 2.321c-7.777 7.777-18.117 12.062-29.117 12.062H51.25c-.876 0-1.735.09-2.563.259V41zm0 10.721V63.7c0 .838.048 1.668.12 2.493-3.037-1.028-5.245-3.875-5.245-7.254 0-3.337 2.15-6.156 5.124-7.217z" fill="#A89365"/></svg>