<svg width="164" height="164" fill="none" xmlns="http://www.w3.org/2000/svg"><path d="M146.001 127.546a28.124 28.124 0 00-18.891-22.107l-22.048-7.35v-3.276h-5.125v4.807l-3.825 15.3-10.35-12.42h-7.526l-10.35 12.42-3.824-15.3v-4.808h-5.125v3.278l-22.047 7.349a28.133 28.133 0 00-18.891 22.107l-5.65 33.892H151.65L146 127.546zm-47.363-1.591l5.679-22.712 21.174 7.06a23.017 23.017 0 0115.457 18.088l2.985 17.92-16.841 2.106-1.542-15.423-5.1.51 2.281 22.806h-28.26l-4.67-32.705 3.056-4.587 5.781 6.937zM38.51 110.303l21.174-7.06 5.679 22.712 5.778-6.935 3.057 4.587-4.669 32.705H41.27l2.28-22.806-5.099-.51-1.542 15.419-16.841-2.106 2.985-17.92a23.015 23.015 0 0115.457-18.086zm-19.285 41.064l17.174 2.147-.28 2.798H18.401l.823-4.945zm55.48 4.945l4.846-33.919-4.986-7.48 6.073-7.288h2.724l6.073 7.288-4.987 7.48 4.848 33.919H74.704zm53.178 0l-.28-2.798 17.174-2.147.823 4.945h-17.717z" fill="#A89365"/><path d="M41.361 50.891c-1.799 2.207-2.923 4.984-2.923 8.047 0 6.575 4.996 11.946 11.382 12.668a28.015 28.015 0 007.124 12.024l9.994 9.994a12.725 12.725 0 009.058 3.751h12.01a12.73 12.73 0 009.059-3.751l9.994-9.994a28.02 28.02 0 007.123-12.023c6.384-.723 11.38-6.094 11.38-12.67 0-3.062-1.124-5.84-2.923-8.046 3.162-.953 5.486-3.859 5.486-7.328 0-4.239-3.449-7.688-7.687-7.688h-.364c-2.043-15.126-13.082-27.783-27.824-31.87V2.563h-20.5v1.442c-14.742 4.087-25.784 16.746-27.824 31.87h-.364c-4.238 0-7.687 3.45-7.687 7.688 0 3.47 2.324 6.375 5.486 7.328zm2.202 8.047c0-3.337 2.15-6.156 5.124-7.217V63.7c0 .838.05 1.668.12 2.493-3.036-1.028-5.245-3.875-5.245-7.254zm59.87 21.068L93.439 90a7.739 7.739 0 01-5.435 2.25h-12.01A7.743 7.743 0 0170.558 90l-9.993-9.994A22.91 22.91 0 0153.81 63.7V51.25h56.375v12.449c.003 6.16-2.396 11.951-6.752 16.307zm11.759-13.817c.072-.822.12-1.652.12-2.49V51.722c2.976 1.06 5.126 3.88 5.126 7.215 0 3.38-2.209 6.227-5.246 7.252zM71.75 9.343V30.75h5.125V7.687h10.25V30.75h5.125V9.343c11.877 3.851 20.741 14.194 22.668 26.532H49.082c1.927-12.338 10.79-22.68 22.668-26.532zM43.562 41h76.876A2.567 2.567 0 01123 43.563a2.567 2.567 0 01-2.562 2.562H43.562A2.567 2.567 0 0141 43.562 2.567 2.567 0 0143.563 41z" fill="#A89365"/><path d="M102.5 25.625h-5.125v5.125h5.125v-5.125zm-35.875 0H61.5v5.125h5.125v-5.125z" fill="#A89365"/></svg>