<svg width="192" height="96" fill="none" xmlns="http://www.w3.org/2000/svg"><path d="M8.746 32.674H.904v-14.43h25.103v59.78H9.247v-45.35h-.5zm2.191 43.167v.5h13.379V19.928H2.596v11.197h8.34V75.84zm65.39-57.731v35.555h7.132v13.223h-7.132v11.136H60.644V67.022H32.388V56.255L55.18 18.11h21.147zM62.335 75.84v.5h12.301V65.339h7.132v-9.855h-7.132V19.928H56.228l-.146.242-21.931 36.495-.072.119v8.554h28.255v10.503zM62.2 55.484H46.21l15.99-27.69v27.689zM49.62 53.05l-.434.75h11.458V33.996l-.933 1.612L49.62 53.049zm81.334-34.94v35.555h7.131v13.223h-7.131v11.136H115.27V67.022H87.015V56.255l22.791-38.145h21.148zm-13.993 57.73v.5h12.302V65.339h7.131v-9.855h-7.131V19.928h-18.409l-.145.242-21.932 36.495-.071.119v8.554h28.255v10.503zm-12.715-22.79l-.434.75h11.458V33.995l-.933 1.612-10.091 17.442zm12.715 2.433H100.97l15.991-27.689v27.689zm33.111 15.881h0l.006.006c4.392 4.243 9.493 6.446 15.551 6.446 6.051 0 11.156-2.064 15.555-6.45 5.639-5.487 8.357-13.28 8.357-23.165 0-9.892-2.857-17.68-8.355-23.163-4.4-4.388-9.505-6.452-15.557-6.452-6.051 0-11.155 2.064-15.555 6.45-5.638 5.487-8.356 13.28-8.356 23.165 0 9.893 2.856 17.68 8.354 23.163zm10.495-38.745l.009-.007.009-.008c1.522-1.392 3.151-2.016 5.179-2.016 1.898 0 3.66.627 5.179 2.016 1.526 1.395 2.835 3.584 3.896 6.888.931 3.188 1.458 6.223 1.458 8.977 0 2.758-.528 5.793-1.459 8.844h0l-.001.006c-.92 3.144-2.353 5.466-3.878 6.867-1.666 1.273-3.438 1.897-5.33 1.897-2.028 0-3.657-.625-5.179-2.016-1.659-1.528-2.968-3.85-3.894-7.017-.929-3.177-1.325-6.082-1.325-8.715 0-2.89.527-5.924 1.456-8.971 1.067-3.188 2.374-5.494 3.88-6.745zM169.86 62.8h0l.005-.005c1.443-1.295 2.553-3.406 3.372-6.124a26.516 26.516 0 001.369-8.336c0-2.602-.412-5.47-1.369-8.47h0l-.003-.007c-.947-2.835-2.058-4.955-3.371-6.12l-.01-.008-.01-.008c-1.425-1.137-2.744-1.585-4.214-1.585-1.614 0-2.936.59-4.088 1.592-1.461 1.17-2.571 3.299-3.385 6.002a26.724 26.724 0 00-1.369 8.47c0 2.467.412 5.333 1.367 8.33.815 2.84 1.922 4.961 3.507 6.264 1.181 1.169 2.522 1.604 4.103 1.604 1.477 0 2.937-.588 4.096-1.599zm-4.231 16.566c-6.454 0-11.984-2.359-16.742-6.838-5.931-5.785-8.86-13.96-8.86-24.327 0-10.5 3.062-18.679 8.868-24.468 4.611-4.599 10.268-6.83 16.734-6.83 6.454 0 11.984 2.358 16.742 6.837 5.93 5.785 8.86 13.958 8.86 24.461 0 10.361-3.06 18.54-8.862 24.329-4.757 4.478-10.287 6.836-16.74 6.836z" fill="#A89365" stroke="#A89365"/></svg>