<svg width="81" height="96" fill="none" xmlns="http://www.w3.org/2000/svg"><g clip-path="url(#clip0)" fill="#A89365" stroke="#A89365"><path d="M8.378 31.706H.363V16.774h25.644v61.352H8.878v-46.42h-.5zm2.247 44.174v.5H24.26V18.52H2.11v11.44h8.515v45.92zm23.706-2.298l2.684-16.614 1.238 1.15.005.004.006.005c2.206 1.93 4.451 3.621 6.86 4.615 2.797 1.258 5.612 1.964 8.576 1.964 3.11 0 5.458-.85 7.091-2.627 1.481-1.485 2.062-3.269 2.062-5.427 0-2.337-.883-4.256-2.497-5.724-2.067-1.919-5.528-2.742-10.09-2.742-3.775 0-7.42.838-10.513 2.383l-1.618.72 5.553-34.515h32.585v14.932H55.468l-.065.424-.549 3.57-.1.655.656-.082c1.064-.133 2.132-.134 3.097-.134 6.902 0 12.39 2.026 16.396 6.165h0l.006.006c3.738 3.738 5.622 8.685 5.622 14.754 0 6.196-2.015 11.424-5.9 15.581-4.558 4.42-10.877 6.855-19.145 6.855-7.88 0-14.788-1.9-20.604-5.551l-.551-.367zm1.983-1.076l-.052.332.287.173c5.313 3.216 11.724 4.742 18.8 4.742 7.643 0 13.696-2.087 17.938-6.47h0c3.67-3.81 5.497-8.47 5.497-14.356 0-5.606-1.688-9.996-5.225-13.535-3.687-3.827-8.774-5.643-15.052-5.643-1.267 0-2.94.14-4.743.417h-.002l-1.248.179 1.34-8.523h20.535V18.384H45.171l-.068.421-4.532 28.43-.136.853.808-.308c2.825-1.076 5.786-1.615 9.024-1.615 5.303 0 9.002 1.09 11.341 3.17l.003.002c2.085 1.824 3.126 4.157 3.126 7.04 0 2.618-.912 4.831-2.612 6.663-1.95 2.08-4.83 3.275-8.425 3.275-3.223 0-6.305-.67-9.253-2.144l-.013-.007-.013-.006c-1.871-.802-3.757-2.012-5.523-3.37l-.669-.514-.13.833-1.785 11.4z"/></g><defs><clipPath id="clip0"><path fill="#fff" d="M0 0h81v96H0z"/></clipPath></defs></svg>