<svg width="69" height="89" fill="none" xmlns="http://www.w3.org/2000/svg"><mask id="a" fill="#fff"><path d="M68.35 67.405a.815.815 0 00-.855.068L65.3 69.078l-2.2-1.605a.817.817 0 00-1.302.669v5.473h-3.311v-5.473a.83.83 0 00-.448-.736.815.815 0 00-.854.068l-2.193 1.605-2.192-1.605a.816.816 0 00-1.181.236.83.83 0 00-.121.432v5.473h-3.31V61.327a.829.829 0 00-.24-.584.817.817 0 00-.58-.242h-.41v-3.938c0-.22-.087-.43-.24-.585a.818.818 0 00-1.401.585V60.5h-1.134V45.011a.829.829 0 00-.24-.583.816.816 0 00-.58-.242H41.93V25.289a.829.829 0 00-.24-.584.817.817 0 00-.58-.242h-1.626L35.05.818a.816.816 0 00-1.613 0l-4.432 23.645h-1.63a.817.817 0 00-.58.242.829.829 0 00-.24.584v18.895H25.12a.817.817 0 00-.58.242.829.829 0 00-.24.584V60.5h-1.233v-3.937c0-.22-.086-.43-.24-.585a.817.817 0 00-1.16 0 .829.829 0 00-.24.585V60.5h-.413a.816.816 0 00-.58.242.828.828 0 00-.24.584v12.288h-2.903v-5.472a.83.83 0 00-.448-.736.815.815 0 00-.854.068l-2.193 1.605-2.192-1.606a.815.815 0 00-1.181.236.83.83 0 00-.121.431v5.474H6.99v-5.472a.83.83 0 00-.448-.737.815.815 0 00-.855.068l-2.2 1.605-2.186-1.605a.817.817 0 00-1.182.237.83.83 0 00-.12.432v20.037c0 .219.086.429.24.584a.817.817 0 00.58.242h67.163a.817.817 0 00.58-.242.829.829 0 00.24-.584V68.142a.83.83 0 00-.453-.737zm-46.512-5.252h4.05v5.823c0 .22.087.43.241.585a.818.818 0 001.4-.585v-5.823h5.844v5.823c0 .22.087.43.24.585a.817.817 0 001.161 0 .829.829 0 00.24-.585v-5.823h5.844v5.823c0 .22.087.43.24.585a.818.818 0 001.401-.585v-5.823h4.05v17.554H21.84V62.153zm18.456-24.68h-2.256V26.114h2.256v11.36zm-3.897-11.359v11.36h-4.305v-11.36h4.305zm-2.152-20.69l3.567 19.038h-7.135l3.568-19.038zm-3.794 20.69v11.36H28.2v-11.36h2.25zM28.2 39.124h12.098v5.06H28.2v-5.06zm-2.256 6.713H42.55V60.5H25.94l.004-14.663zM1.645 69.763l1.371 1.005a.817.817 0 00.965 0l1.374-1.006v4.682c0 .219.087.429.24.584a.817.817 0 00.58.241h4.952a.817.817 0 00.58-.242.829.829 0 00.24-.583v-4.68l1.371 1.004a.816.816 0 00.965 0l1.371-1.005v4.68c0 .22.087.43.24.585a.817.817 0 00.58.241h3.728V87.35H1.64V69.763h.004zm20.193 17.585v-5.99h24.71v5.99h-24.71zm45.314 0H48.189V75.266h4.138a.817.817 0 00.58-.242.828.828 0 00.24-.583v-4.678l1.371 1.005a.815.815 0 00.965 0l1.371-1.005v4.68c0 .22.087.43.24.585a.817.817 0 00.58.241h4.952a.817.817 0 00.58-.242.829.829 0 00.24-.583v-4.68l1.374 1.005a.817.817 0 00.965 0l1.371-1.004v17.583h-.004z"/></mask><path d="M68.35 67.405a.815.815 0 00-.855.068L65.3 69.078l-2.2-1.605a.817.817 0 00-1.302.669v5.473h-3.311v-5.473a.83.83 0 00-.448-.736.815.815 0 00-.854.068l-2.193 1.605-2.192-1.605a.816.816 0 00-1.181.236.83.83 0 00-.121.432v5.473h-3.31V61.327a.829.829 0 00-.24-.584.817.817 0 00-.58-.242h-.41v-3.938c0-.22-.087-.43-.24-.585a.818.818 0 00-1.401.585V60.5h-1.134V45.011a.829.829 0 00-.24-.583.816.816 0 00-.58-.242H41.93V25.289a.829.829 0 00-.24-.584.817.817 0 00-.58-.242h-1.626L35.05.818a.816.816 0 00-1.613 0l-4.432 23.645h-1.63a.817.817 0 00-.58.242.829.829 0 00-.24.584v18.895H25.12a.817.817 0 00-.58.242.829.829 0 00-.24.584V60.5h-1.233v-3.937c0-.22-.086-.43-.24-.585a.817.817 0 00-1.16 0 .829.829 0 00-.24.585V60.5h-.413a.816.816 0 00-.58.242.828.828 0 00-.24.584v12.288h-2.903v-5.472a.83.83 0 00-.448-.736.815.815 0 00-.854.068l-2.193 1.605-2.192-1.606a.815.815 0 00-1.181.236.83.83 0 00-.121.431v5.474H6.99v-5.472a.83.83 0 00-.448-.737.815.815 0 00-.855.068l-2.2 1.605-2.186-1.605a.817.817 0 00-1.182.237.83.83 0 00-.12.432v20.037c0 .219.086.429.24.584a.817.817 0 00.58.242h67.163a.817.817 0 00.58-.242.829.829 0 00.24-.584V68.142a.83.83 0 00-.453-.737zm-46.512-5.252h4.05v5.823c0 .22.087.43.241.585a.818.818 0 001.4-.585v-5.823h5.844v5.823c0 .22.087.43.24.585a.817.817 0 001.161 0 .829.829 0 00.24-.585v-5.823h5.844v5.823c0 .22.087.43.24.585a.818.818 0 001.401-.585v-5.823h4.05v17.554H21.84V62.153zm18.456-24.68h-2.256V26.114h2.256v11.36zm-3.897-11.359v11.36h-4.305v-11.36h4.305zm-2.152-20.69l3.567 19.038h-7.135l3.568-19.038zm-3.794 20.69v11.36H28.2v-11.36h2.25zM28.2 39.124h12.098v5.06H28.2v-5.06zm-2.256 6.713H42.55V60.5H25.94l.004-14.663zM1.645 69.763l1.371 1.005a.817.817 0 00.965 0l1.374-1.006v4.682c0 .219.087.429.24.584a.817.817 0 00.58.241h4.952a.817.817 0 00.58-.242.829.829 0 00.24-.583v-4.68l1.371 1.004a.816.816 0 00.965 0l1.371-1.005v4.68c0 .22.087.43.24.585a.817.817 0 00.58.241h3.728V87.35H1.64V69.763h.004zm20.193 17.585v-5.99h24.71v5.99h-24.71zm45.314 0H48.189V75.266h4.138a.817.817 0 00.58-.242.828.828 0 00.24-.583v-4.678l1.371 1.005a.815.815 0 00.965 0l1.371-1.005v4.68c0 .22.087.43.24.585a.817.817 0 00.58.241h4.952a.817.817 0 00.58-.242.829.829 0 00.24-.583v-4.68l1.374 1.005a.817.817 0 00.965 0l1.371-1.004v17.583h-.004z" fill="#A89365" stroke="#A89365" stroke-width="2" mask="url(#a)"/></svg>