<svg width="56" height="96" fill="none" xmlns="http://www.w3.org/2000/svg"><path d="M26.868 27.546c7.072 0 12.805-5.743 12.805-12.826 0-7.084-5.733-12.827-12.805-12.827S14.063 7.636 14.063 14.72s5.733 12.827 12.805 12.827zM54 95H2V57.517c0-6.815 2.704-13.223 7.615-18.043C14.526 34.654 21.055 32 28 32c6.945 0 13.474 2.654 18.385 7.474C51.295 44.294 54 50.702 54 57.518V95z" stroke="#A89365" stroke-width="2"/><path d="M31.813 34.083H22.36v3.787h9.452v-3.787zm-2.546 5.631l5.15 17.564-6.56 7.704-7.691-7.704 4.674-17.564" stroke="#A89365" stroke-width="2"/></svg>