<svg width="99" height="96" fill="none" xmlns="http://www.w3.org/2000/svg"><path d="M98.278 75.186H70.671v10.509H29.3v-10.51H.605V48.962c0-4.725 1.852-9.166 5.217-12.51l92.456 38.735zm0 0V48.96c0-4.725-1.852-9.167-5.217-12.51-3.366-3.343-7.838-5.184-12.599-5.184-4.76 0-9.232 1.84-12.599 5.183a17.807 17.807 0 00-2.903 3.776l-.315.549-.461-.433c-3.855-3.62-8.872-5.604-14.199-5.604-5.528 0-10.721 2.136-14.628 6.018h0c-.088.088-.176.176-.262.265l-.484.498-.319-.617a17.758 17.758 0 00-3.272-4.452c-3.366-3.342-7.838-5.183-12.599-5.183-4.76 0-9.232 1.84-12.599 5.183l92.456 38.736zm-30.064 8.572h.5V73.25h27.607V48.961a15.61 15.61 0 00-4.645-11.143h0a15.815 15.815 0 00-11.214-4.614 15.814 15.814 0 00-11.213 4.613h0a15.893 15.893 0 00-2.587 3.365l-1.55 2.7-2.274-2.135a18.706 18.706 0 00-12.853-5.073c-5.002 0-9.706 1.936-13.242 5.45l-.239.24-2.387 2.456-1.567-3.037a15.816 15.816 0 00-2.915-3.965h0a15.815 15.815 0 00-11.214-4.614 15.815 15.815 0 00-11.213 4.613h0c-2.995 2.977-4.646 6.936-4.646 11.144V73.25h28.694v10.509h36.958zm-19.15-53.786c5.245 0 9.517-4.24 9.517-9.459 0-5.218-4.273-9.457-9.518-9.457-5.245 0-9.518 4.239-9.518 9.457 0 5.22 4.273 9.459 9.518 9.459zm30.601-3.224c4.351 0 7.896-3.516 7.896-7.846s-3.545-7.846-7.896-7.846-7.896 3.516-7.896 7.846 3.545 7.846 7.896 7.846zm-62.04 0c4.35 0 7.895-3.516 7.895-7.846s-3.545-7.846-7.896-7.846-7.896 3.516-7.896 7.846 3.545 7.846 7.896 7.846zm31.438 5.16c-6.34 0-11.475-5.105-11.475-11.395 0-6.289 5.135-11.394 11.475-11.394s11.474 5.105 11.474 11.394c0 6.29-5.133 11.396-11.474 11.396zm30.602-3.223c-5.445 0-9.853-4.382-9.853-9.783 0-5.4 4.408-9.783 9.853-9.783 5.444 0 9.852 4.384 9.852 9.783 0 5.401-4.408 9.783-9.852 9.783zm-62.04 0c-5.446 0-9.854-4.382-9.854-9.783 0-5.4 4.408-9.783 9.853-9.783 5.444 0 9.852 4.384 9.852 9.783 0 5.401-4.408 9.783-9.852 9.783z" fill="#A89365" stroke="#A89365"/><path d="M53.531 36.708h-8.87v2.937h8.87v-2.937zm-2.511 4.003l4.196 14.194-5.344 6.224-6.269-6.224 3.809-14.194" stroke="#A89365" stroke-width="2"/></svg>